<mxfile host="app.diagrams.net" modified="2024-04-16T02:41:30.440Z" agent="Mozilla/5.0 (X11; Ubuntu; Linux x86_64; rv:124.0) Gecko/20100101 Firefox/124.0" etag="aEUWukNoSxl-NJ2exiDs" version="24.2.3" type="google">
  <diagram name="Page-1" id="aMNQJVQ4VRTvNVJp9aHc">
    <mxGraphModel grid="1" page="0" gridSize="10" guides="1" tooltips="1" connect="1" arrows="1" fold="1" pageScale="1" pageWidth="850" pageHeight="1100" math="0" shadow="0">
      <root>
        <mxCell id="0" />
        <mxCell id="1" parent="0" />
        <mxCell id="UT1VLudavlkwH00lMybZ-489" value="" style="whiteSpace=wrap;html=1;aspect=fixed;strokeColor=#FFFFFF;fillColor=#d5e8d4;strokeWidth=2;" vertex="1" parent="1">
          <mxGeometry x="820" y="1461" width="159" height="159" as="geometry" />
        </mxCell>
        <mxCell id="UT1VLudavlkwH00lMybZ-486" value="" style="whiteSpace=wrap;html=1;aspect=fixed;strokeColor=#FFFFFF;fillColor=#d5e8d4;strokeWidth=2;" vertex="1" parent="1">
          <mxGeometry x="980.69" y="1939.26" width="159" height="159" as="geometry" />
        </mxCell>
        <mxCell id="UT1VLudavlkwH00lMybZ-471" value="" style="shape=or;whiteSpace=wrap;html=1;rotation=90;fillColor=#d5e8d4;strokeColor=#000000;strokeWidth=2;" vertex="1" parent="1">
          <mxGeometry x="1178.13" y="2060.65" width="83.74" height="161" as="geometry" />
        </mxCell>
        <mxCell id="UT1VLudavlkwH00lMybZ-472" value="" style="shape=or;whiteSpace=wrap;html=1;rotation=90;fillColor=#d5e8d4;strokeColor=#000000;strokeWidth=2;" vertex="1" parent="1">
          <mxGeometry x="859.26" y="2059.25" width="81.48" height="161" as="geometry" />
        </mxCell>
        <mxCell id="6lRXq5zpDCbXAbgdjt75-6" value="" style="group;opacity=40;strokeWidth=2;" connectable="0" vertex="1" parent="1">
          <mxGeometry x="720" y="1460.25" width="840" height="639.75" as="geometry" />
        </mxCell>
        <mxCell id="UT1VLudavlkwH00lMybZ-482" value="" style="whiteSpace=wrap;html=1;aspect=fixed;strokeColor=#FFFFFF;fillColor=#dae8fc;opacity=40;strokeWidth=2;" vertex="1" parent="6lRXq5zpDCbXAbgdjt75-6">
          <mxGeometry x="260" y="319.1300000000001" width="159.56" height="159.56" as="geometry" />
        </mxCell>
        <mxCell id="6lRXq5zpDCbXAbgdjt75-5" value="" style="group;opacity=40;strokeWidth=2;" connectable="0" vertex="1" parent="6lRXq5zpDCbXAbgdjt75-6">
          <mxGeometry width="840" height="639.75" as="geometry" />
        </mxCell>
        <mxCell id="UT1VLudavlkwH00lMybZ-490" value="" style="whiteSpace=wrap;html=1;aspect=fixed;strokeColor=#FFFFFF;fillColor=#dae8fc;opacity=40;strokeWidth=2;" vertex="1" parent="6lRXq5zpDCbXAbgdjt75-5">
          <mxGeometry x="260.5" y="0.25" width="159" height="159" as="geometry" />
        </mxCell>
        <mxCell id="UT1VLudavlkwH00lMybZ-469" value="" style="shape=or;whiteSpace=wrap;html=1;rotation=0;fillColor=#dae8fc;strokeColor=#000000;opacity=40;strokeWidth=2;" vertex="1" parent="6lRXq5zpDCbXAbgdjt75-5">
          <mxGeometry x="739.94" y="476.76" width="79.81" height="161" as="geometry" />
        </mxCell>
        <mxCell id="UT1VLudavlkwH00lMybZ-470" value="" style="shape=or;whiteSpace=wrap;html=1;rotation=0;fillColor=#dae8fc;strokeColor=#000000;opacity=40;strokeWidth=2;" vertex="1" parent="6lRXq5zpDCbXAbgdjt75-5">
          <mxGeometry x="739.75" y="159.25" width="79.81" height="161" as="geometry" />
        </mxCell>
        <mxCell id="UT1VLudavlkwH00lMybZ-475" value="" style="shape=or;whiteSpace=wrap;html=1;rotation=-180;fillColor=#dae8fc;strokeColor=#000000;opacity=40;strokeWidth=2;" vertex="1" parent="6lRXq5zpDCbXAbgdjt75-5">
          <mxGeometry x="20.090000000000146" y="319.25" width="79.81" height="161" as="geometry" />
        </mxCell>
        <mxCell id="UT1VLudavlkwH00lMybZ-476" value="" style="shape=or;whiteSpace=wrap;html=1;rotation=-180;fillColor=#dae8fc;strokeColor=#000000;opacity=40;strokeWidth=2;" vertex="1" parent="6lRXq5zpDCbXAbgdjt75-5">
          <mxGeometry x="20.38000000000011" y="0.75" width="79.81" height="161" as="geometry" />
        </mxCell>
        <mxCell id="UT1VLudavlkwH00lMybZ-477" value="" style="whiteSpace=wrap;html=1;aspect=fixed;strokeColor=#FFFFFF;fillColor=#dae8fc;opacity=40;strokeWidth=2;" vertex="1" parent="6lRXq5zpDCbXAbgdjt75-5">
          <mxGeometry x="100.13" y="158.75" width="160.88" height="160.88" as="geometry" />
        </mxCell>
        <mxCell id="UT1VLudavlkwH00lMybZ-479" value="" style="whiteSpace=wrap;html=1;aspect=fixed;strokeColor=#FFFFFF;fillColor=#dae8fc;opacity=40;strokeWidth=2;" vertex="1" parent="6lRXq5zpDCbXAbgdjt75-5">
          <mxGeometry x="420.3800000000001" y="160.3800000000001" width="159" height="159" as="geometry" />
        </mxCell>
        <mxCell id="UT1VLudavlkwH00lMybZ-484" value="" style="whiteSpace=wrap;html=1;aspect=fixed;strokeColor=#FFFFFF;fillColor=#dae8fc;opacity=40;strokeWidth=2;" vertex="1" parent="6lRXq5zpDCbXAbgdjt75-5">
          <mxGeometry x="580.81" y="318.8800000000001" width="159" height="159" as="geometry" />
        </mxCell>
        <mxCell id="UT1VLudavlkwH00lMybZ-485" value="" style="whiteSpace=wrap;html=1;aspect=fixed;strokeColor=#FFFFFF;fillColor=#dae8fc;opacity=40;strokeWidth=2;" vertex="1" parent="6lRXq5zpDCbXAbgdjt75-5">
          <mxGeometry x="100.19000000000005" y="479.51" width="159" height="159" as="geometry" />
        </mxCell>
        <mxCell id="UT1VLudavlkwH00lMybZ-487" value="" style="whiteSpace=wrap;html=1;aspect=fixed;strokeColor=#FFFFFF;fillColor=#dae8fc;opacity=40;strokeWidth=2;" vertex="1" parent="6lRXq5zpDCbXAbgdjt75-5">
          <mxGeometry x="420.44000000000005" y="479.26" width="160.49" height="160.49" as="geometry" />
        </mxCell>
        <mxCell id="UT1VLudavlkwH00lMybZ-492" value="" style="whiteSpace=wrap;html=1;aspect=fixed;strokeColor=#FFFFFF;fillColor=#dae8fc;opacity=40;strokeWidth=2;" vertex="1" parent="6lRXq5zpDCbXAbgdjt75-5">
          <mxGeometry x="580.75" width="159" height="159" as="geometry" />
        </mxCell>
        <mxCell id="UT1VLudavlkwH00lMybZ-558" value="Z" style="ellipse;whiteSpace=wrap;html=1;aspect=fixed;fillColor=#b1ddf0;strokeColor=#10739e;fontStyle=1;fontSize=17;opacity=50;textOpacity=40;strokeWidth=2;" vertex="1" parent="6lRXq5zpDCbXAbgdjt75-5">
          <mxGeometry y="59.75" width="40" height="40" as="geometry" />
        </mxCell>
        <mxCell id="UT1VLudavlkwH00lMybZ-560" value="Z" style="ellipse;whiteSpace=wrap;html=1;aspect=fixed;fillColor=#b1ddf0;strokeColor=#10739e;fontStyle=1;fontSize=17;opacity=50;textOpacity=40;strokeWidth=2;" vertex="1" parent="6lRXq5zpDCbXAbgdjt75-5">
          <mxGeometry x="320" y="59.75" width="40" height="40" as="geometry" />
        </mxCell>
        <mxCell id="UT1VLudavlkwH00lMybZ-562" value="Z" style="ellipse;whiteSpace=wrap;html=1;aspect=fixed;fillColor=#b1ddf0;strokeColor=#10739e;fontStyle=1;fontSize=17;opacity=50;textOpacity=40;strokeWidth=2;" vertex="1" parent="6lRXq5zpDCbXAbgdjt75-5">
          <mxGeometry x="640" y="59.75" width="40" height="40" as="geometry" />
        </mxCell>
        <mxCell id="UT1VLudavlkwH00lMybZ-563" value="Z" style="ellipse;whiteSpace=wrap;html=1;aspect=fixed;fillColor=#b1ddf0;strokeColor=#10739e;fontStyle=1;fontSize=17;opacity=50;textOpacity=40;strokeWidth=2;" vertex="1" parent="6lRXq5zpDCbXAbgdjt75-5">
          <mxGeometry x="160" y="219.75" width="40" height="40" as="geometry" />
        </mxCell>
        <mxCell id="UT1VLudavlkwH00lMybZ-565" value="Z" style="ellipse;whiteSpace=wrap;html=1;aspect=fixed;fillColor=#b1ddf0;strokeColor=#10739e;fontStyle=1;fontSize=17;opacity=50;textOpacity=40;strokeWidth=2;" vertex="1" parent="6lRXq5zpDCbXAbgdjt75-5">
          <mxGeometry x="480" y="219.75" width="40" height="40" as="geometry" />
        </mxCell>
        <mxCell id="UT1VLudavlkwH00lMybZ-567" value="Z" style="ellipse;whiteSpace=wrap;html=1;aspect=fixed;fillColor=#b1ddf0;strokeColor=#10739e;fontStyle=1;fontSize=17;opacity=50;textOpacity=40;strokeWidth=2;" vertex="1" parent="6lRXq5zpDCbXAbgdjt75-5">
          <mxGeometry x="800" y="219.75" width="40" height="40" as="geometry" />
        </mxCell>
        <mxCell id="UT1VLudavlkwH00lMybZ-568" value="Z" style="ellipse;whiteSpace=wrap;html=1;aspect=fixed;fillColor=#b1ddf0;strokeColor=#10739e;fontStyle=1;fontSize=17;opacity=50;textOpacity=40;strokeWidth=2;" vertex="1" parent="6lRXq5zpDCbXAbgdjt75-5">
          <mxGeometry y="379.75" width="40" height="40" as="geometry" />
        </mxCell>
        <mxCell id="UT1VLudavlkwH00lMybZ-570" value="Z" style="ellipse;whiteSpace=wrap;html=1;aspect=fixed;fillColor=#b1ddf0;strokeColor=#10739e;fontStyle=1;fontSize=17;opacity=50;textOpacity=40;strokeWidth=2;" vertex="1" parent="6lRXq5zpDCbXAbgdjt75-5">
          <mxGeometry x="320" y="379.75" width="40" height="40" as="geometry" />
        </mxCell>
        <mxCell id="UT1VLudavlkwH00lMybZ-572" value="Z" style="ellipse;whiteSpace=wrap;html=1;aspect=fixed;fillColor=#b1ddf0;strokeColor=#10739e;fontStyle=1;fontSize=17;opacity=50;textOpacity=40;strokeWidth=2;" vertex="1" parent="6lRXq5zpDCbXAbgdjt75-5">
          <mxGeometry x="640" y="379.75" width="40" height="40" as="geometry" />
        </mxCell>
        <mxCell id="UT1VLudavlkwH00lMybZ-573" value="Z" style="ellipse;whiteSpace=wrap;html=1;aspect=fixed;fillColor=#b1ddf0;strokeColor=#10739e;fontStyle=1;fontSize=17;opacity=50;textOpacity=40;strokeWidth=2;" vertex="1" parent="6lRXq5zpDCbXAbgdjt75-5">
          <mxGeometry x="160" y="539.75" width="40" height="40" as="geometry" />
        </mxCell>
        <mxCell id="UT1VLudavlkwH00lMybZ-575" value="Z" style="ellipse;whiteSpace=wrap;html=1;aspect=fixed;fillColor=#b1ddf0;strokeColor=#10739e;fontStyle=1;fontSize=17;opacity=50;textOpacity=40;strokeWidth=2;" vertex="1" parent="6lRXq5zpDCbXAbgdjt75-5">
          <mxGeometry x="480" y="539.75" width="40" height="40" as="geometry" />
        </mxCell>
        <mxCell id="UT1VLudavlkwH00lMybZ-577" value="Z" style="ellipse;whiteSpace=wrap;html=1;aspect=fixed;fillColor=#b1ddf0;strokeColor=#10739e;fontStyle=1;fontSize=17;opacity=50;textOpacity=40;strokeWidth=2;" vertex="1" parent="6lRXq5zpDCbXAbgdjt75-5">
          <mxGeometry x="800" y="539.75" width="40" height="40" as="geometry" />
        </mxCell>
        <mxCell id="6lRXq5zpDCbXAbgdjt75-66" style="edgeStyle=orthogonalEdgeStyle;rounded=0;orthogonalLoop=1;jettySize=auto;html=1;exitX=0;exitY=0.5;exitDx=0;exitDy=0;entryX=1;entryY=0.5;entryDx=0;entryDy=0;strokeWidth=3;" edge="1" parent="6lRXq5zpDCbXAbgdjt75-5" source="6lRXq5zpDCbXAbgdjt75-7" target="6lRXq5zpDCbXAbgdjt75-64">
          <mxGeometry relative="1" as="geometry" />
        </mxCell>
        <mxCell id="6lRXq5zpDCbXAbgdjt75-7" value="&lt;font style=&quot;font-size: 31px;&quot;&gt;M&lt;br style=&quot;font-size: 31px;&quot;&gt;&lt;/font&gt;" style="rounded=0;whiteSpace=wrap;html=1;strokeWidth=3;fontSize=31;fontStyle=0;aspect=fixed;" vertex="1" parent="6lRXq5zpDCbXAbgdjt75-5">
          <mxGeometry x="320" y="59.5" width="40" height="40" as="geometry" />
        </mxCell>
        <mxCell id="6lRXq5zpDCbXAbgdjt75-8" value="&lt;font style=&quot;font-size: 31px;&quot;&gt;M&lt;br style=&quot;font-size: 31px;&quot;&gt;&lt;/font&gt;" style="rounded=0;whiteSpace=wrap;html=1;strokeWidth=3;fontSize=31;fontStyle=0;aspect=fixed;" vertex="1" parent="6lRXq5zpDCbXAbgdjt75-5">
          <mxGeometry x="159.68999999999994" y="539.75" width="40" height="40" as="geometry" />
        </mxCell>
        <mxCell id="6lRXq5zpDCbXAbgdjt75-9" value="&lt;font style=&quot;font-size: 31px;&quot;&gt;M&lt;br style=&quot;font-size: 31px;&quot;&gt;&lt;/font&gt;" style="rounded=0;whiteSpace=wrap;html=1;strokeWidth=3;fontSize=31;fontStyle=0;aspect=fixed;" vertex="1" parent="6lRXq5zpDCbXAbgdjt75-5">
          <mxGeometry x="640" y="59.5" width="40" height="40" as="geometry" />
        </mxCell>
        <mxCell id="6lRXq5zpDCbXAbgdjt75-10" value="&lt;font style=&quot;font-size: 31px;&quot;&gt;M&lt;br style=&quot;font-size: 31px;&quot;&gt;&lt;/font&gt;" style="rounded=0;whiteSpace=wrap;html=1;strokeWidth=3;fontSize=31;fontStyle=0;aspect=fixed;" vertex="1" parent="6lRXq5zpDCbXAbgdjt75-5">
          <mxGeometry x="480.68000000000006" y="539.75" width="40" height="40" as="geometry" />
        </mxCell>
        <mxCell id="6lRXq5zpDCbXAbgdjt75-64" value="&lt;font style=&quot;font-size: 31px;&quot;&gt;M&lt;br style=&quot;font-size: 31px;&quot;&gt;&lt;/font&gt;" style="rounded=0;whiteSpace=wrap;html=1;strokeWidth=3;fontSize=31;fontStyle=0;aspect=fixed;" vertex="1" parent="6lRXq5zpDCbXAbgdjt75-5">
          <mxGeometry x="240" y="59.5" width="40" height="40" as="geometry" />
        </mxCell>
        <mxCell id="UT1VLudavlkwH00lMybZ-473" value="" style="shape=or;whiteSpace=wrap;html=1;rotation=-90;fillColor=#d5e8d4;strokeColor=#000000;strokeWidth=2;" vertex="1" parent="1">
          <mxGeometry x="1340.1" y="1340" width="79.81" height="161" as="geometry" />
        </mxCell>
        <mxCell id="UT1VLudavlkwH00lMybZ-474" value="" style="shape=or;whiteSpace=wrap;html=1;rotation=-90;fillColor=#d5e8d4;strokeColor=#000000;strokeWidth=2;" vertex="1" parent="1">
          <mxGeometry x="1020.0900000000001" y="1340" width="79.81" height="161" as="geometry" />
        </mxCell>
        <mxCell id="UT1VLudavlkwH00lMybZ-478" value="" style="whiteSpace=wrap;html=1;aspect=fixed;strokeColor=#FFFFFF;fillColor=#d5e8d4;strokeWidth=2;" vertex="1" parent="1">
          <mxGeometry x="980.6300000000001" y="1620.38" width="159" height="159" as="geometry" />
        </mxCell>
        <mxCell id="UT1VLudavlkwH00lMybZ-480" value="" style="whiteSpace=wrap;html=1;aspect=fixed;strokeColor=#FFFFFF;fillColor=#d5e8d4;strokeWidth=2;" vertex="1" parent="1">
          <mxGeometry x="1300.88" y="1620.13" width="159" height="159" as="geometry" />
        </mxCell>
        <mxCell id="UT1VLudavlkwH00lMybZ-481" value="" style="whiteSpace=wrap;html=1;aspect=fixed;strokeColor=#FFFFFF;fillColor=#d5e8d4;strokeWidth=2;" vertex="1" parent="1">
          <mxGeometry x="820.06" y="1779.88" width="159.94" height="159.94" as="geometry" />
        </mxCell>
        <mxCell id="UT1VLudavlkwH00lMybZ-483" value="" style="whiteSpace=wrap;html=1;aspect=fixed;strokeColor=#FFFFFF;fillColor=#d5e8d4;strokeWidth=2;" vertex="1" parent="1">
          <mxGeometry x="1140.31" y="1779.63" width="159" height="159" as="geometry" />
        </mxCell>
        <mxCell id="UT1VLudavlkwH00lMybZ-488" value="" style="whiteSpace=wrap;html=1;aspect=fixed;strokeColor=#FFFFFF;fillColor=#d5e8d4;strokeWidth=2;" vertex="1" parent="1">
          <mxGeometry x="1300.94" y="1939.01" width="159" height="159" as="geometry" />
        </mxCell>
        <mxCell id="UT1VLudavlkwH00lMybZ-491" value="" style="whiteSpace=wrap;html=1;aspect=fixed;strokeColor=#FFFFFF;fillColor=#d5e8d4;strokeWidth=2;" vertex="1" parent="1">
          <mxGeometry x="1140.25" y="1460.75" width="159" height="159" as="geometry" />
        </mxCell>
        <mxCell id="UT1VLudavlkwH00lMybZ-493" style="edgeStyle=orthogonalEdgeStyle;rounded=0;orthogonalLoop=1;jettySize=auto;html=1;entryX=0.5;entryY=0;entryDx=0;entryDy=0;endArrow=none;endFill=0;fontStyle=1;fontSize=17;strokeWidth=2;" edge="1" parent="1" source="UT1VLudavlkwH00lMybZ-495" target="UT1VLudavlkwH00lMybZ-499">
          <mxGeometry relative="1" as="geometry" />
        </mxCell>
        <mxCell id="UT1VLudavlkwH00lMybZ-494" style="edgeStyle=orthogonalEdgeStyle;rounded=0;orthogonalLoop=1;jettySize=auto;html=1;entryX=0;entryY=0.5;entryDx=0;entryDy=0;endArrow=none;endFill=0;fontStyle=1;fontSize=17;strokeWidth=2;" edge="1" parent="1" source="UT1VLudavlkwH00lMybZ-495" target="UT1VLudavlkwH00lMybZ-497">
          <mxGeometry relative="1" as="geometry" />
        </mxCell>
        <mxCell id="UT1VLudavlkwH00lMybZ-495" value="D" style="ellipse;whiteSpace=wrap;html=1;aspect=fixed;fontStyle=1;fontSize=17;strokeWidth=2;" vertex="1" parent="1">
          <mxGeometry x="800" y="1440" width="40" height="40" as="geometry" />
        </mxCell>
        <mxCell id="UT1VLudavlkwH00lMybZ-496" style="edgeStyle=orthogonalEdgeStyle;rounded=0;orthogonalLoop=1;jettySize=auto;html=1;entryX=0.5;entryY=0;entryDx=0;entryDy=0;endArrow=none;endFill=0;fontStyle=1;fontSize=17;strokeWidth=2;" edge="1" parent="1" target="UT1VLudavlkwH00lMybZ-501">
          <mxGeometry relative="1" as="geometry">
            <mxPoint x="980" y="1560" as="sourcePoint" />
          </mxGeometry>
        </mxCell>
        <mxCell id="UT1VLudavlkwH00lMybZ-497" value="D" style="ellipse;whiteSpace=wrap;html=1;aspect=fixed;fontStyle=1;fontSize=17;strokeWidth=2;" vertex="1" parent="1">
          <mxGeometry x="960" y="1440" width="40" height="40" as="geometry" />
        </mxCell>
        <mxCell id="UT1VLudavlkwH00lMybZ-498" style="edgeStyle=orthogonalEdgeStyle;rounded=0;orthogonalLoop=1;jettySize=auto;html=1;exitX=0.5;exitY=1;exitDx=0;exitDy=0;entryX=0.5;entryY=0;entryDx=0;entryDy=0;endArrow=none;endFill=0;fontStyle=1;fontSize=17;strokeWidth=2;" edge="1" parent="1" source="UT1VLudavlkwH00lMybZ-499" target="UT1VLudavlkwH00lMybZ-523">
          <mxGeometry relative="1" as="geometry" />
        </mxCell>
        <mxCell id="UT1VLudavlkwH00lMybZ-499" value="D" style="ellipse;whiteSpace=wrap;html=1;aspect=fixed;fontStyle=1;fontSize=17;strokeWidth=2;" vertex="1" parent="1">
          <mxGeometry x="800" y="1600" width="40" height="40" as="geometry" />
        </mxCell>
        <mxCell id="UT1VLudavlkwH00lMybZ-500" style="edgeStyle=orthogonalEdgeStyle;rounded=0;orthogonalLoop=1;jettySize=auto;html=1;entryX=0.5;entryY=0;entryDx=0;entryDy=0;endArrow=none;endFill=0;fontStyle=1;fontSize=17;strokeWidth=2;" edge="1" parent="1" source="UT1VLudavlkwH00lMybZ-501" target="UT1VLudavlkwH00lMybZ-525">
          <mxGeometry relative="1" as="geometry" />
        </mxCell>
        <mxCell id="UT1VLudavlkwH00lMybZ-501" value="D" style="ellipse;whiteSpace=wrap;html=1;aspect=fixed;fontStyle=1;fontSize=17;strokeWidth=2;" vertex="1" parent="1">
          <mxGeometry x="960" y="1600" width="40" height="40" as="geometry" />
        </mxCell>
        <mxCell id="UT1VLudavlkwH00lMybZ-502" style="edgeStyle=orthogonalEdgeStyle;rounded=0;orthogonalLoop=1;jettySize=auto;html=1;entryX=0;entryY=0.5;entryDx=0;entryDy=0;endArrow=none;endFill=0;fontStyle=1;fontSize=17;strokeWidth=2;" edge="1" parent="1">
          <mxGeometry relative="1" as="geometry">
            <mxPoint x="840" y="1619.44" as="sourcePoint" />
            <mxPoint x="960" y="1619.44" as="targetPoint" />
          </mxGeometry>
        </mxCell>
        <mxCell id="UT1VLudavlkwH00lMybZ-503" style="edgeStyle=orthogonalEdgeStyle;rounded=0;orthogonalLoop=1;jettySize=auto;html=1;entryX=0.5;entryY=0;entryDx=0;entryDy=0;endArrow=none;endFill=0;fontStyle=1;fontSize=17;strokeWidth=2;" edge="1" parent="1" source="UT1VLudavlkwH00lMybZ-505" target="UT1VLudavlkwH00lMybZ-509">
          <mxGeometry relative="1" as="geometry" />
        </mxCell>
        <mxCell id="UT1VLudavlkwH00lMybZ-504" style="edgeStyle=orthogonalEdgeStyle;rounded=0;orthogonalLoop=1;jettySize=auto;html=1;entryX=0;entryY=0.5;entryDx=0;entryDy=0;endArrow=none;endFill=0;fontStyle=1;fontSize=17;strokeWidth=2;" edge="1" parent="1" source="UT1VLudavlkwH00lMybZ-505" target="UT1VLudavlkwH00lMybZ-507">
          <mxGeometry relative="1" as="geometry" />
        </mxCell>
        <mxCell id="UT1VLudavlkwH00lMybZ-505" value="D" style="ellipse;whiteSpace=wrap;html=1;aspect=fixed;fontStyle=1;fontSize=17;strokeWidth=2;" vertex="1" parent="1">
          <mxGeometry x="1120" y="1440" width="40" height="40" as="geometry" />
        </mxCell>
        <mxCell id="UT1VLudavlkwH00lMybZ-506" style="edgeStyle=orthogonalEdgeStyle;rounded=0;orthogonalLoop=1;jettySize=auto;html=1;entryX=0.5;entryY=0;entryDx=0;entryDy=0;endArrow=none;endFill=0;fontStyle=1;fontSize=17;strokeWidth=2;" edge="1" parent="1" source="6lRXq5zpDCbXAbgdjt75-51" target="UT1VLudavlkwH00lMybZ-511">
          <mxGeometry relative="1" as="geometry" />
        </mxCell>
        <mxCell id="UT1VLudavlkwH00lMybZ-507" value="D" style="ellipse;whiteSpace=wrap;html=1;aspect=fixed;fontStyle=1;fontSize=17;strokeWidth=2;" vertex="1" parent="1">
          <mxGeometry x="1280" y="1440" width="40" height="40" as="geometry" />
        </mxCell>
        <mxCell id="UT1VLudavlkwH00lMybZ-508" style="edgeStyle=orthogonalEdgeStyle;rounded=0;orthogonalLoop=1;jettySize=auto;html=1;exitX=0.5;exitY=1;exitDx=0;exitDy=0;entryX=0.5;entryY=0;entryDx=0;entryDy=0;endArrow=none;endFill=0;fontStyle=1;fontSize=17;strokeWidth=2;" edge="1" parent="1" source="UT1VLudavlkwH00lMybZ-509" target="UT1VLudavlkwH00lMybZ-531">
          <mxGeometry relative="1" as="geometry" />
        </mxCell>
        <mxCell id="UT1VLudavlkwH00lMybZ-509" value="D" style="ellipse;whiteSpace=wrap;html=1;aspect=fixed;fontStyle=1;fontSize=17;strokeWidth=2;" vertex="1" parent="1">
          <mxGeometry x="1120" y="1600" width="40" height="40" as="geometry" />
        </mxCell>
        <mxCell id="UT1VLudavlkwH00lMybZ-510" style="edgeStyle=orthogonalEdgeStyle;rounded=0;orthogonalLoop=1;jettySize=auto;html=1;exitX=0.5;exitY=1;exitDx=0;exitDy=0;entryX=0.5;entryY=0;entryDx=0;entryDy=0;endArrow=none;endFill=0;fontStyle=1;fontSize=17;strokeWidth=2;" edge="1" parent="1" source="UT1VLudavlkwH00lMybZ-511" target="UT1VLudavlkwH00lMybZ-533">
          <mxGeometry relative="1" as="geometry" />
        </mxCell>
        <mxCell id="UT1VLudavlkwH00lMybZ-511" value="D" style="ellipse;whiteSpace=wrap;html=1;aspect=fixed;fontStyle=1;fontSize=17;strokeWidth=2;" vertex="1" parent="1">
          <mxGeometry x="1280" y="1600" width="40" height="40" as="geometry" />
        </mxCell>
        <mxCell id="UT1VLudavlkwH00lMybZ-512" style="edgeStyle=orthogonalEdgeStyle;rounded=0;orthogonalLoop=1;jettySize=auto;html=1;entryX=0;entryY=0.5;entryDx=0;entryDy=0;endArrow=none;endFill=0;fontStyle=1;fontSize=17;strokeWidth=2;" edge="1" parent="1">
          <mxGeometry relative="1" as="geometry">
            <mxPoint x="1160" y="1619.44" as="sourcePoint" />
            <mxPoint x="1280" y="1619.44" as="targetPoint" />
          </mxGeometry>
        </mxCell>
        <mxCell id="UT1VLudavlkwH00lMybZ-513" style="edgeStyle=orthogonalEdgeStyle;rounded=0;orthogonalLoop=1;jettySize=auto;html=1;entryX=0.5;entryY=0;entryDx=0;entryDy=0;endArrow=none;endFill=0;fontStyle=1;fontSize=17;strokeWidth=2;" edge="1" parent="1" source="UT1VLudavlkwH00lMybZ-514" target="UT1VLudavlkwH00lMybZ-516">
          <mxGeometry relative="1" as="geometry" />
        </mxCell>
        <mxCell id="UT1VLudavlkwH00lMybZ-514" value="D" style="ellipse;whiteSpace=wrap;html=1;aspect=fixed;fontStyle=1;fontSize=17;strokeWidth=2;" vertex="1" parent="1">
          <mxGeometry x="1440" y="1440" width="40" height="40" as="geometry" />
        </mxCell>
        <mxCell id="UT1VLudavlkwH00lMybZ-515" style="edgeStyle=orthogonalEdgeStyle;rounded=0;orthogonalLoop=1;jettySize=auto;html=1;exitX=0.5;exitY=1;exitDx=0;exitDy=0;entryX=0.5;entryY=0;entryDx=0;entryDy=0;endArrow=none;endFill=0;fontStyle=1;fontSize=17;strokeWidth=2;" edge="1" parent="1" source="UT1VLudavlkwH00lMybZ-516" target="UT1VLudavlkwH00lMybZ-538">
          <mxGeometry relative="1" as="geometry" />
        </mxCell>
        <mxCell id="UT1VLudavlkwH00lMybZ-516" value="D" style="ellipse;whiteSpace=wrap;html=1;aspect=fixed;fontStyle=1;fontSize=17;strokeWidth=2;" vertex="1" parent="1">
          <mxGeometry x="1440" y="1600" width="40" height="40" as="geometry" />
        </mxCell>
        <mxCell id="UT1VLudavlkwH00lMybZ-517" style="edgeStyle=orthogonalEdgeStyle;rounded=0;orthogonalLoop=1;jettySize=auto;html=1;entryX=0;entryY=0.5;entryDx=0;entryDy=0;endArrow=none;endFill=0;fontStyle=1;fontSize=17;strokeWidth=2;" edge="1" parent="1">
          <mxGeometry relative="1" as="geometry">
            <mxPoint x="1000" y="1460" as="sourcePoint" />
            <mxPoint x="1120" y="1460" as="targetPoint" />
          </mxGeometry>
        </mxCell>
        <mxCell id="UT1VLudavlkwH00lMybZ-518" style="edgeStyle=orthogonalEdgeStyle;rounded=0;orthogonalLoop=1;jettySize=auto;html=1;entryX=0;entryY=0.5;entryDx=0;entryDy=0;endArrow=none;endFill=0;fontStyle=1;fontSize=17;strokeWidth=2;" edge="1" parent="1">
          <mxGeometry relative="1" as="geometry">
            <mxPoint x="1000" y="1619.44" as="sourcePoint" />
            <mxPoint x="1120" y="1619.44" as="targetPoint" />
          </mxGeometry>
        </mxCell>
        <mxCell id="UT1VLudavlkwH00lMybZ-519" style="edgeStyle=orthogonalEdgeStyle;rounded=0;orthogonalLoop=1;jettySize=auto;html=1;entryX=0;entryY=0.5;entryDx=0;entryDy=0;endArrow=none;endFill=0;fontStyle=1;fontSize=17;strokeWidth=2;" edge="1" parent="1">
          <mxGeometry relative="1" as="geometry">
            <mxPoint x="1320" y="1460" as="sourcePoint" />
            <mxPoint x="1440" y="1460" as="targetPoint" />
          </mxGeometry>
        </mxCell>
        <mxCell id="UT1VLudavlkwH00lMybZ-520" style="edgeStyle=orthogonalEdgeStyle;rounded=0;orthogonalLoop=1;jettySize=auto;html=1;entryX=0;entryY=0.5;entryDx=0;entryDy=0;endArrow=none;endFill=0;fontStyle=1;fontSize=17;strokeWidth=2;" edge="1" parent="1">
          <mxGeometry relative="1" as="geometry">
            <mxPoint x="1320" y="1619.44" as="sourcePoint" />
            <mxPoint x="1440" y="1619.44" as="targetPoint" />
          </mxGeometry>
        </mxCell>
        <mxCell id="UT1VLudavlkwH00lMybZ-521" style="edgeStyle=orthogonalEdgeStyle;rounded=0;orthogonalLoop=1;jettySize=auto;html=1;entryX=0.5;entryY=0;entryDx=0;entryDy=0;endArrow=none;endFill=0;fontStyle=1;fontSize=17;strokeWidth=2;" edge="1" parent="1" source="UT1VLudavlkwH00lMybZ-523" target="UT1VLudavlkwH00lMybZ-526">
          <mxGeometry relative="1" as="geometry" />
        </mxCell>
        <mxCell id="UT1VLudavlkwH00lMybZ-522" style="edgeStyle=orthogonalEdgeStyle;rounded=0;orthogonalLoop=1;jettySize=auto;html=1;entryX=0;entryY=0.5;entryDx=0;entryDy=0;endArrow=none;endFill=0;fontStyle=1;fontSize=17;strokeWidth=2;" edge="1" parent="1" source="UT1VLudavlkwH00lMybZ-523" target="UT1VLudavlkwH00lMybZ-525">
          <mxGeometry relative="1" as="geometry" />
        </mxCell>
        <mxCell id="UT1VLudavlkwH00lMybZ-523" value="D" style="ellipse;whiteSpace=wrap;html=1;aspect=fixed;fontStyle=1;fontSize=17;strokeWidth=2;" vertex="1" parent="1">
          <mxGeometry x="800" y="1760" width="40" height="40" as="geometry" />
        </mxCell>
        <mxCell id="UT1VLudavlkwH00lMybZ-524" style="edgeStyle=orthogonalEdgeStyle;rounded=0;orthogonalLoop=1;jettySize=auto;html=1;entryX=0.5;entryY=0;entryDx=0;entryDy=0;endArrow=none;endFill=0;fontStyle=1;fontSize=17;strokeWidth=2;" edge="1" parent="1" source="UT1VLudavlkwH00lMybZ-525" target="UT1VLudavlkwH00lMybZ-527">
          <mxGeometry relative="1" as="geometry" />
        </mxCell>
        <mxCell id="UT1VLudavlkwH00lMybZ-525" value="D" style="ellipse;whiteSpace=wrap;html=1;aspect=fixed;fontStyle=1;fontSize=17;strokeWidth=2;" vertex="1" parent="1">
          <mxGeometry x="960" y="1760" width="40" height="40" as="geometry" />
        </mxCell>
        <mxCell id="UT1VLudavlkwH00lMybZ-526" value="D" style="ellipse;whiteSpace=wrap;html=1;aspect=fixed;fontStyle=1;fontSize=17;strokeWidth=2;" vertex="1" parent="1">
          <mxGeometry x="800" y="1920" width="40" height="40" as="geometry" />
        </mxCell>
        <mxCell id="UT1VLudavlkwH00lMybZ-527" value="D" style="ellipse;whiteSpace=wrap;html=1;aspect=fixed;fontStyle=1;fontSize=17;strokeWidth=2;" vertex="1" parent="1">
          <mxGeometry x="960" y="1920" width="40" height="40" as="geometry" />
        </mxCell>
        <mxCell id="UT1VLudavlkwH00lMybZ-528" style="edgeStyle=orthogonalEdgeStyle;rounded=0;orthogonalLoop=1;jettySize=auto;html=1;entryX=0;entryY=0.5;entryDx=0;entryDy=0;endArrow=none;endFill=0;fontStyle=1;fontSize=17;strokeWidth=2;" edge="1" parent="1">
          <mxGeometry relative="1" as="geometry">
            <mxPoint x="840" y="1939.44" as="sourcePoint" />
            <mxPoint x="960" y="1939.44" as="targetPoint" />
          </mxGeometry>
        </mxCell>
        <mxCell id="UT1VLudavlkwH00lMybZ-529" style="edgeStyle=orthogonalEdgeStyle;rounded=0;orthogonalLoop=1;jettySize=auto;html=1;entryX=0.5;entryY=0;entryDx=0;entryDy=0;endArrow=none;endFill=0;fontStyle=1;fontSize=17;strokeWidth=2;" edge="1" parent="1" source="UT1VLudavlkwH00lMybZ-531" target="UT1VLudavlkwH00lMybZ-534">
          <mxGeometry relative="1" as="geometry" />
        </mxCell>
        <mxCell id="UT1VLudavlkwH00lMybZ-530" style="edgeStyle=orthogonalEdgeStyle;rounded=0;orthogonalLoop=1;jettySize=auto;html=1;entryX=0;entryY=0.5;entryDx=0;entryDy=0;endArrow=none;endFill=0;fontStyle=1;fontSize=17;strokeWidth=2;" edge="1" parent="1" source="UT1VLudavlkwH00lMybZ-531" target="UT1VLudavlkwH00lMybZ-533">
          <mxGeometry relative="1" as="geometry" />
        </mxCell>
        <mxCell id="UT1VLudavlkwH00lMybZ-531" value="D" style="ellipse;whiteSpace=wrap;html=1;aspect=fixed;fontStyle=1;fontSize=17;strokeWidth=2;" vertex="1" parent="1">
          <mxGeometry x="1120" y="1760" width="40" height="40" as="geometry" />
        </mxCell>
        <mxCell id="UT1VLudavlkwH00lMybZ-532" style="edgeStyle=orthogonalEdgeStyle;rounded=0;orthogonalLoop=1;jettySize=auto;html=1;entryX=0.5;entryY=0;entryDx=0;entryDy=0;endArrow=none;endFill=0;fontStyle=1;fontSize=17;strokeWidth=2;" edge="1" parent="1" source="UT1VLudavlkwH00lMybZ-533" target="UT1VLudavlkwH00lMybZ-535">
          <mxGeometry relative="1" as="geometry" />
        </mxCell>
        <mxCell id="UT1VLudavlkwH00lMybZ-533" value="D" style="ellipse;whiteSpace=wrap;html=1;aspect=fixed;fontStyle=1;fontSize=17;strokeWidth=2;" vertex="1" parent="1">
          <mxGeometry x="1280" y="1760" width="40" height="40" as="geometry" />
        </mxCell>
        <mxCell id="UT1VLudavlkwH00lMybZ-534" value="D" style="ellipse;whiteSpace=wrap;html=1;aspect=fixed;fontStyle=1;fontSize=17;strokeWidth=2;" vertex="1" parent="1">
          <mxGeometry x="1120" y="1920" width="40" height="40" as="geometry" />
        </mxCell>
        <mxCell id="UT1VLudavlkwH00lMybZ-535" value="D" style="ellipse;whiteSpace=wrap;html=1;aspect=fixed;fontStyle=1;fontSize=17;strokeWidth=2;" vertex="1" parent="1">
          <mxGeometry x="1280" y="1920" width="40" height="40" as="geometry" />
        </mxCell>
        <mxCell id="UT1VLudavlkwH00lMybZ-536" style="edgeStyle=orthogonalEdgeStyle;rounded=0;orthogonalLoop=1;jettySize=auto;html=1;entryX=0;entryY=0.5;entryDx=0;entryDy=0;endArrow=none;endFill=0;fontStyle=1;fontSize=17;strokeWidth=2;" edge="1" parent="1">
          <mxGeometry relative="1" as="geometry">
            <mxPoint x="1160" y="1939.44" as="sourcePoint" />
            <mxPoint x="1280" y="1939.44" as="targetPoint" />
          </mxGeometry>
        </mxCell>
        <mxCell id="UT1VLudavlkwH00lMybZ-537" style="edgeStyle=orthogonalEdgeStyle;rounded=0;orthogonalLoop=1;jettySize=auto;html=1;entryX=0.5;entryY=0;entryDx=0;entryDy=0;endArrow=none;endFill=0;fontStyle=1;fontSize=17;strokeWidth=2;" edge="1" parent="1" source="UT1VLudavlkwH00lMybZ-538" target="UT1VLudavlkwH00lMybZ-539">
          <mxGeometry relative="1" as="geometry" />
        </mxCell>
        <mxCell id="UT1VLudavlkwH00lMybZ-538" value="D" style="ellipse;whiteSpace=wrap;html=1;aspect=fixed;fontStyle=1;fontSize=17;strokeWidth=2;" vertex="1" parent="1">
          <mxGeometry x="1440" y="1760" width="40" height="40" as="geometry" />
        </mxCell>
        <mxCell id="UT1VLudavlkwH00lMybZ-539" value="D" style="ellipse;whiteSpace=wrap;html=1;aspect=fixed;fontStyle=1;fontSize=17;strokeWidth=2;" vertex="1" parent="1">
          <mxGeometry x="1440" y="1920" width="40" height="40" as="geometry" />
        </mxCell>
        <mxCell id="UT1VLudavlkwH00lMybZ-540" style="edgeStyle=orthogonalEdgeStyle;rounded=0;orthogonalLoop=1;jettySize=auto;html=1;entryX=0;entryY=0.5;entryDx=0;entryDy=0;endArrow=none;endFill=0;fontStyle=1;fontSize=17;strokeWidth=2;" edge="1" parent="1">
          <mxGeometry relative="1" as="geometry">
            <mxPoint x="1000" y="1780" as="sourcePoint" />
            <mxPoint x="1120" y="1780" as="targetPoint" />
          </mxGeometry>
        </mxCell>
        <mxCell id="UT1VLudavlkwH00lMybZ-541" style="edgeStyle=orthogonalEdgeStyle;rounded=0;orthogonalLoop=1;jettySize=auto;html=1;entryX=0;entryY=0.5;entryDx=0;entryDy=0;endArrow=none;endFill=0;fontStyle=1;fontSize=17;strokeWidth=2;" edge="1" parent="1">
          <mxGeometry relative="1" as="geometry">
            <mxPoint x="1000" y="1939.44" as="sourcePoint" />
            <mxPoint x="1120" y="1939.44" as="targetPoint" />
          </mxGeometry>
        </mxCell>
        <mxCell id="UT1VLudavlkwH00lMybZ-542" style="edgeStyle=orthogonalEdgeStyle;rounded=0;orthogonalLoop=1;jettySize=auto;html=1;entryX=0;entryY=0.5;entryDx=0;entryDy=0;endArrow=none;endFill=0;fontStyle=1;fontSize=17;strokeWidth=2;" edge="1" parent="1">
          <mxGeometry relative="1" as="geometry">
            <mxPoint x="1320" y="1780" as="sourcePoint" />
            <mxPoint x="1440" y="1780" as="targetPoint" />
          </mxGeometry>
        </mxCell>
        <mxCell id="UT1VLudavlkwH00lMybZ-543" style="edgeStyle=orthogonalEdgeStyle;rounded=0;orthogonalLoop=1;jettySize=auto;html=1;entryX=0;entryY=0.5;entryDx=0;entryDy=0;endArrow=none;endFill=0;fontStyle=1;fontSize=17;strokeWidth=2;" edge="1" parent="1">
          <mxGeometry relative="1" as="geometry">
            <mxPoint x="1320" y="1939.44" as="sourcePoint" />
            <mxPoint x="1440" y="1939.44" as="targetPoint" />
          </mxGeometry>
        </mxCell>
        <mxCell id="UT1VLudavlkwH00lMybZ-544" value="D" style="ellipse;whiteSpace=wrap;html=1;aspect=fixed;fontStyle=1;fontSize=17;strokeWidth=2;" vertex="1" parent="1">
          <mxGeometry x="800" y="2080" width="40" height="40" as="geometry" />
        </mxCell>
        <mxCell id="UT1VLudavlkwH00lMybZ-545" value="D" style="ellipse;whiteSpace=wrap;html=1;aspect=fixed;fontStyle=1;fontSize=17;strokeWidth=2;" vertex="1" parent="1">
          <mxGeometry x="960" y="2080" width="40" height="40" as="geometry" />
        </mxCell>
        <mxCell id="UT1VLudavlkwH00lMybZ-546" style="edgeStyle=orthogonalEdgeStyle;rounded=0;orthogonalLoop=1;jettySize=auto;html=1;entryX=0;entryY=0.5;entryDx=0;entryDy=0;endArrow=none;endFill=0;fontStyle=1;fontSize=17;strokeWidth=2;" edge="1" parent="1">
          <mxGeometry relative="1" as="geometry">
            <mxPoint x="840" y="2099.44" as="sourcePoint" />
            <mxPoint x="960" y="2099.44" as="targetPoint" />
          </mxGeometry>
        </mxCell>
        <mxCell id="UT1VLudavlkwH00lMybZ-547" value="D" style="ellipse;whiteSpace=wrap;html=1;aspect=fixed;fontStyle=1;fontSize=17;strokeWidth=2;" vertex="1" parent="1">
          <mxGeometry x="1120" y="2080" width="40" height="40" as="geometry" />
        </mxCell>
        <mxCell id="UT1VLudavlkwH00lMybZ-548" value="D" style="ellipse;whiteSpace=wrap;html=1;aspect=fixed;fontStyle=1;fontSize=17;strokeWidth=2;" vertex="1" parent="1">
          <mxGeometry x="1280" y="2080" width="40" height="40" as="geometry" />
        </mxCell>
        <mxCell id="UT1VLudavlkwH00lMybZ-549" style="edgeStyle=orthogonalEdgeStyle;rounded=0;orthogonalLoop=1;jettySize=auto;html=1;entryX=0;entryY=0.5;entryDx=0;entryDy=0;endArrow=none;endFill=0;fontStyle=1;fontSize=17;strokeWidth=2;" edge="1" parent="1">
          <mxGeometry relative="1" as="geometry">
            <mxPoint x="1160" y="2099.44" as="sourcePoint" />
            <mxPoint x="1280" y="2099.44" as="targetPoint" />
          </mxGeometry>
        </mxCell>
        <mxCell id="UT1VLudavlkwH00lMybZ-550" value="D" style="ellipse;whiteSpace=wrap;html=1;aspect=fixed;fontStyle=1;fontSize=17;strokeWidth=2;" vertex="1" parent="1">
          <mxGeometry x="1440" y="2080" width="40" height="40" as="geometry" />
        </mxCell>
        <mxCell id="UT1VLudavlkwH00lMybZ-551" style="edgeStyle=orthogonalEdgeStyle;rounded=0;orthogonalLoop=1;jettySize=auto;html=1;entryX=0;entryY=0.5;entryDx=0;entryDy=0;endArrow=none;endFill=0;fontStyle=1;fontSize=17;strokeWidth=2;" edge="1" parent="1">
          <mxGeometry relative="1" as="geometry">
            <mxPoint x="1000" y="2099.44" as="sourcePoint" />
            <mxPoint x="1120" y="2099.44" as="targetPoint" />
          </mxGeometry>
        </mxCell>
        <mxCell id="UT1VLudavlkwH00lMybZ-552" style="edgeStyle=orthogonalEdgeStyle;rounded=0;orthogonalLoop=1;jettySize=auto;html=1;entryX=0;entryY=0.5;entryDx=0;entryDy=0;endArrow=none;endFill=0;fontStyle=1;fontSize=17;strokeWidth=2;" edge="1" parent="1">
          <mxGeometry relative="1" as="geometry">
            <mxPoint x="1320" y="2099.44" as="sourcePoint" />
            <mxPoint x="1440" y="2099.44" as="targetPoint" />
          </mxGeometry>
        </mxCell>
        <mxCell id="UT1VLudavlkwH00lMybZ-553" style="edgeStyle=orthogonalEdgeStyle;rounded=0;orthogonalLoop=1;jettySize=auto;html=1;entryX=0.5;entryY=0;entryDx=0;entryDy=0;endArrow=none;endFill=0;fontStyle=1;fontSize=17;strokeWidth=2;" edge="1" parent="1">
          <mxGeometry relative="1" as="geometry">
            <mxPoint x="819.5" y="1960" as="sourcePoint" />
            <mxPoint x="819.5" y="2080" as="targetPoint" />
          </mxGeometry>
        </mxCell>
        <mxCell id="UT1VLudavlkwH00lMybZ-554" style="edgeStyle=orthogonalEdgeStyle;rounded=0;orthogonalLoop=1;jettySize=auto;html=1;entryX=0.5;entryY=0;entryDx=0;entryDy=0;endArrow=none;endFill=0;fontStyle=1;fontSize=17;strokeWidth=2;" edge="1" parent="1" source="6lRXq5zpDCbXAbgdjt75-53">
          <mxGeometry relative="1" as="geometry">
            <mxPoint x="979.5" y="1960" as="sourcePoint" />
            <mxPoint x="979.5" y="2080" as="targetPoint" />
          </mxGeometry>
        </mxCell>
        <mxCell id="UT1VLudavlkwH00lMybZ-555" style="edgeStyle=orthogonalEdgeStyle;rounded=0;orthogonalLoop=1;jettySize=auto;html=1;entryX=0.5;entryY=0;entryDx=0;entryDy=0;endArrow=none;endFill=0;fontStyle=1;fontSize=17;strokeWidth=2;" edge="1" parent="1">
          <mxGeometry relative="1" as="geometry">
            <mxPoint x="1139.5" y="1960" as="sourcePoint" />
            <mxPoint x="1139.5" y="2080" as="targetPoint" />
          </mxGeometry>
        </mxCell>
        <mxCell id="UT1VLudavlkwH00lMybZ-556" style="edgeStyle=orthogonalEdgeStyle;rounded=0;orthogonalLoop=1;jettySize=auto;html=1;entryX=0.5;entryY=0;entryDx=0;entryDy=0;endArrow=none;endFill=0;fontStyle=1;fontSize=17;strokeWidth=2;" edge="1" parent="1" source="6lRXq5zpDCbXAbgdjt75-57">
          <mxGeometry relative="1" as="geometry">
            <mxPoint x="1299.5" y="1960" as="sourcePoint" />
            <mxPoint x="1299.5" y="2080" as="targetPoint" />
          </mxGeometry>
        </mxCell>
        <mxCell id="UT1VLudavlkwH00lMybZ-557" style="edgeStyle=orthogonalEdgeStyle;rounded=0;orthogonalLoop=1;jettySize=auto;html=1;entryX=0.5;entryY=0;entryDx=0;entryDy=0;endArrow=none;endFill=0;fontStyle=1;fontSize=17;strokeWidth=2;" edge="1" parent="1">
          <mxGeometry relative="1" as="geometry">
            <mxPoint x="1459.5" y="1960" as="sourcePoint" />
            <mxPoint x="1459.5" y="2080" as="targetPoint" />
          </mxGeometry>
        </mxCell>
        <mxCell id="6lRXq5zpDCbXAbgdjt75-65" style="rounded=0;orthogonalLoop=1;jettySize=auto;html=1;exitX=1;exitY=0.5;exitDx=0;exitDy=0;entryX=0;entryY=0.5;entryDx=0;entryDy=0;edgeStyle=orthogonalEdgeStyle;strokeWidth=3;" edge="1" parent="1" source="UT1VLudavlkwH00lMybZ-559" target="6lRXq5zpDCbXAbgdjt75-64">
          <mxGeometry relative="1" as="geometry" />
        </mxCell>
        <mxCell id="UT1VLudavlkwH00lMybZ-559" value="&lt;font&gt;X&lt;/font&gt;" style="ellipse;whiteSpace=wrap;html=1;aspect=fixed;fillColor=#75CF1C;strokeColor=#2D7600;fontStyle=1;fontSize=17;fontColor=#000000;strokeWidth=2;" vertex="1" parent="1">
          <mxGeometry x="880" y="1520" width="40" height="40" as="geometry" />
        </mxCell>
        <mxCell id="6lRXq5zpDCbXAbgdjt75-70" style="edgeStyle=orthogonalEdgeStyle;rounded=0;orthogonalLoop=1;jettySize=auto;html=1;exitX=1;exitY=0.5;exitDx=0;exitDy=0;entryX=0;entryY=0.5;entryDx=0;entryDy=0;strokeWidth=3;" edge="1" parent="1" source="UT1VLudavlkwH00lMybZ-561" target="6lRXq5zpDCbXAbgdjt75-51">
          <mxGeometry relative="1" as="geometry" />
        </mxCell>
        <mxCell id="UT1VLudavlkwH00lMybZ-561" value="X" style="ellipse;whiteSpace=wrap;html=1;aspect=fixed;fillColor=#75CF1C;strokeColor=#2D7600;fontStyle=1;fontSize=17;fontColor=#0F0F0F;strokeWidth=2;" vertex="1" parent="1">
          <mxGeometry x="1200" y="1520" width="40" height="40" as="geometry" />
        </mxCell>
        <mxCell id="6lRXq5zpDCbXAbgdjt75-13" style="edgeStyle=orthogonalEdgeStyle;rounded=0;orthogonalLoop=1;jettySize=auto;html=1;exitX=0.5;exitY=0;exitDx=0;exitDy=0;entryX=0.5;entryY=1;entryDx=0;entryDy=0;strokeWidth=3;" edge="1" parent="1" source="UT1VLudavlkwH00lMybZ-564" target="6lRXq5zpDCbXAbgdjt75-7">
          <mxGeometry relative="1" as="geometry" />
        </mxCell>
        <mxCell id="UT1VLudavlkwH00lMybZ-564" value="X" style="ellipse;whiteSpace=wrap;html=1;aspect=fixed;fillColor=#75CF1C;strokeColor=#2D7600;fontStyle=1;fontSize=17;fontColor=#0F0F0F;strokeWidth=2;" vertex="1" parent="1">
          <mxGeometry x="1040" y="1680" width="40" height="40" as="geometry" />
        </mxCell>
        <mxCell id="6lRXq5zpDCbXAbgdjt75-15" style="edgeStyle=orthogonalEdgeStyle;rounded=0;orthogonalLoop=1;jettySize=auto;html=1;exitX=0.5;exitY=0;exitDx=0;exitDy=0;entryX=0.5;entryY=1;entryDx=0;entryDy=0;strokeWidth=3;" edge="1" parent="1" source="UT1VLudavlkwH00lMybZ-566" target="6lRXq5zpDCbXAbgdjt75-9">
          <mxGeometry relative="1" as="geometry" />
        </mxCell>
        <mxCell id="UT1VLudavlkwH00lMybZ-566" value="X" style="ellipse;whiteSpace=wrap;html=1;aspect=fixed;fillColor=#75CF1C;strokeColor=#2D7600;fontStyle=1;fontSize=17;fontColor=#0F0F0F;strokeWidth=2;" vertex="1" parent="1">
          <mxGeometry x="1360" y="1680" width="40" height="40" as="geometry" />
        </mxCell>
        <mxCell id="6lRXq5zpDCbXAbgdjt75-12" style="edgeStyle=orthogonalEdgeStyle;rounded=0;orthogonalLoop=1;jettySize=auto;html=1;exitX=0.5;exitY=1;exitDx=0;exitDy=0;entryX=0.5;entryY=0;entryDx=0;entryDy=0;strokeWidth=3;" edge="1" parent="1" source="UT1VLudavlkwH00lMybZ-569" target="6lRXq5zpDCbXAbgdjt75-8">
          <mxGeometry relative="1" as="geometry" />
        </mxCell>
        <mxCell id="UT1VLudavlkwH00lMybZ-569" value="X" style="ellipse;whiteSpace=wrap;html=1;aspect=fixed;fillColor=#75CF1C;strokeColor=#2D7600;fontStyle=1;fontSize=17;fontColor=#0F0F0F;strokeWidth=2;" vertex="1" parent="1">
          <mxGeometry x="880" y="1840" width="40" height="40" as="geometry" />
        </mxCell>
        <mxCell id="6lRXq5zpDCbXAbgdjt75-18" style="edgeStyle=orthogonalEdgeStyle;rounded=0;orthogonalLoop=1;jettySize=auto;html=1;exitX=0.5;exitY=1;exitDx=0;exitDy=0;entryX=0.5;entryY=0;entryDx=0;entryDy=0;strokeWidth=3;" edge="1" parent="1" source="UT1VLudavlkwH00lMybZ-571" target="6lRXq5zpDCbXAbgdjt75-10">
          <mxGeometry relative="1" as="geometry" />
        </mxCell>
        <mxCell id="UT1VLudavlkwH00lMybZ-571" value="X" style="ellipse;whiteSpace=wrap;html=1;aspect=fixed;fillColor=#75CF1C;strokeColor=#2D7600;fontStyle=1;fontSize=17;fontColor=#000000;strokeWidth=2;" vertex="1" parent="1">
          <mxGeometry x="1200" y="1840" width="40" height="40" as="geometry" />
        </mxCell>
        <mxCell id="6lRXq5zpDCbXAbgdjt75-60" style="edgeStyle=orthogonalEdgeStyle;rounded=0;orthogonalLoop=1;jettySize=auto;html=1;exitX=0;exitY=0.5;exitDx=0;exitDy=0;entryX=1;entryY=0.5;entryDx=0;entryDy=0;strokeWidth=3;" edge="1" parent="1" source="UT1VLudavlkwH00lMybZ-574" target="6lRXq5zpDCbXAbgdjt75-53">
          <mxGeometry relative="1" as="geometry" />
        </mxCell>
        <mxCell id="UT1VLudavlkwH00lMybZ-574" value="X" style="ellipse;whiteSpace=wrap;html=1;aspect=fixed;fillColor=#75CF1C;strokeColor=#2D7600;fontStyle=1;fontSize=17;fontColor=#0F0F0F;strokeWidth=2;" vertex="1" parent="1">
          <mxGeometry x="1040" y="2000" width="40" height="40" as="geometry" />
        </mxCell>
        <mxCell id="6lRXq5zpDCbXAbgdjt75-68" style="edgeStyle=orthogonalEdgeStyle;rounded=0;orthogonalLoop=1;jettySize=auto;html=1;exitX=0;exitY=0.5;exitDx=0;exitDy=0;entryX=1;entryY=0.5;entryDx=0;entryDy=0;strokeWidth=3;" edge="1" parent="1" source="UT1VLudavlkwH00lMybZ-576" target="6lRXq5zpDCbXAbgdjt75-57">
          <mxGeometry relative="1" as="geometry" />
        </mxCell>
        <mxCell id="UT1VLudavlkwH00lMybZ-576" value="X" style="ellipse;whiteSpace=wrap;html=1;aspect=fixed;fillColor=#75CF1C;strokeColor=#2D7600;fontStyle=1;fontSize=17;fontColor=#000000;strokeWidth=2;" vertex="1" parent="1">
          <mxGeometry x="1360" y="2000" width="40" height="40" as="geometry" />
        </mxCell>
        <mxCell id="6lRXq5zpDCbXAbgdjt75-11" style="edgeStyle=orthogonalEdgeStyle;rounded=0;orthogonalLoop=1;jettySize=auto;html=1;exitX=0.5;exitY=0;exitDx=0;exitDy=0;strokeWidth=3;" edge="1" parent="1" source="UT1VLudavlkwH00lMybZ-578" target="6lRXq5zpDCbXAbgdjt75-8">
          <mxGeometry relative="1" as="geometry" />
        </mxCell>
        <mxCell id="UT1VLudavlkwH00lMybZ-578" value="X" style="ellipse;whiteSpace=wrap;html=1;aspect=fixed;fillColor=#75CF1C;strokeColor=#2D7600;fontStyle=1;fontSize=17;fontColor=#0F0F0F;strokeWidth=2;" vertex="1" parent="1">
          <mxGeometry x="880" y="2160" width="40" height="40" as="geometry" />
        </mxCell>
        <mxCell id="6lRXq5zpDCbXAbgdjt75-17" style="edgeStyle=orthogonalEdgeStyle;rounded=0;orthogonalLoop=1;jettySize=auto;html=1;exitX=0.5;exitY=0;exitDx=0;exitDy=0;entryX=0.5;entryY=1;entryDx=0;entryDy=0;strokeWidth=3;" edge="1" parent="1" source="UT1VLudavlkwH00lMybZ-579" target="6lRXq5zpDCbXAbgdjt75-10">
          <mxGeometry relative="1" as="geometry" />
        </mxCell>
        <mxCell id="UT1VLudavlkwH00lMybZ-579" value="X" style="ellipse;whiteSpace=wrap;html=1;aspect=fixed;fillColor=#75CF1C;strokeColor=#2D7600;fontStyle=1;fontSize=17;fontColor=#0F0F0F;strokeWidth=2;" vertex="1" parent="1">
          <mxGeometry x="1200" y="2160" width="40" height="40" as="geometry" />
        </mxCell>
        <mxCell id="6lRXq5zpDCbXAbgdjt75-14" style="edgeStyle=orthogonalEdgeStyle;rounded=0;orthogonalLoop=1;jettySize=auto;html=1;exitX=0.5;exitY=1;exitDx=0;exitDy=0;entryX=0.5;entryY=0;entryDx=0;entryDy=0;strokeWidth=3;" edge="1" parent="1" source="UT1VLudavlkwH00lMybZ-580" target="6lRXq5zpDCbXAbgdjt75-7">
          <mxGeometry relative="1" as="geometry" />
        </mxCell>
        <mxCell id="UT1VLudavlkwH00lMybZ-580" value="X" style="ellipse;whiteSpace=wrap;html=1;aspect=fixed;fillColor=#75CF1C;strokeColor=#2D7600;fontStyle=1;fontSize=17;fontColor=#0F0F0F;strokeWidth=2;" vertex="1" parent="1">
          <mxGeometry x="1040" y="1360" width="40" height="40" as="geometry" />
        </mxCell>
        <mxCell id="6lRXq5zpDCbXAbgdjt75-16" style="edgeStyle=orthogonalEdgeStyle;rounded=0;orthogonalLoop=1;jettySize=auto;html=1;exitX=0.5;exitY=1;exitDx=0;exitDy=0;entryX=0.5;entryY=0;entryDx=0;entryDy=0;strokeWidth=3;" edge="1" parent="1" source="UT1VLudavlkwH00lMybZ-581" target="6lRXq5zpDCbXAbgdjt75-9">
          <mxGeometry relative="1" as="geometry" />
        </mxCell>
        <mxCell id="UT1VLudavlkwH00lMybZ-581" value="X" style="ellipse;whiteSpace=wrap;html=1;aspect=fixed;fillColor=#75CF1C;strokeColor=#2D7600;fontStyle=1;fontSize=17;fontColor=#0F0F0F;strokeWidth=2;" vertex="1" parent="1">
          <mxGeometry x="1360" y="1360" width="40" height="40" as="geometry" />
        </mxCell>
        <mxCell id="6lRXq5zpDCbXAbgdjt75-50" value="" style="edgeStyle=orthogonalEdgeStyle;rounded=0;orthogonalLoop=1;jettySize=auto;html=1;entryX=0.5;entryY=0;entryDx=0;entryDy=0;endArrow=none;endFill=0;fontStyle=1;fontSize=17;strokeWidth=2;" edge="1" parent="1" source="UT1VLudavlkwH00lMybZ-497">
          <mxGeometry relative="1" as="geometry">
            <mxPoint x="980" y="1480" as="sourcePoint" />
            <mxPoint x="980" y="1520" as="targetPoint" />
          </mxGeometry>
        </mxCell>
        <mxCell id="6lRXq5zpDCbXAbgdjt75-52" value="" style="edgeStyle=orthogonalEdgeStyle;rounded=0;orthogonalLoop=1;jettySize=auto;html=1;entryX=0.5;entryY=0;entryDx=0;entryDy=0;endArrow=none;endFill=0;fontStyle=1;fontSize=17;strokeWidth=2;" edge="1" parent="1" source="UT1VLudavlkwH00lMybZ-507" target="6lRXq5zpDCbXAbgdjt75-51">
          <mxGeometry relative="1" as="geometry">
            <mxPoint x="1300" y="1480" as="sourcePoint" />
            <mxPoint x="1300" y="1600" as="targetPoint" />
          </mxGeometry>
        </mxCell>
        <mxCell id="6lRXq5zpDCbXAbgdjt75-85" style="edgeStyle=orthogonalEdgeStyle;rounded=0;orthogonalLoop=1;jettySize=auto;html=1;exitX=0.5;exitY=0;exitDx=0;exitDy=0;entryX=0.5;entryY=1;entryDx=0;entryDy=0;strokeWidth=3;" edge="1" parent="1" source="6lRXq5zpDCbXAbgdjt75-51" target="6lRXq5zpDCbXAbgdjt75-80">
          <mxGeometry relative="1" as="geometry" />
        </mxCell>
        <mxCell id="6lRXq5zpDCbXAbgdjt75-51" value="&lt;font style=&quot;font-size: 31px;&quot;&gt;M&lt;br style=&quot;font-size: 31px;&quot;&gt;&lt;/font&gt;" style="rounded=0;whiteSpace=wrap;html=1;strokeWidth=3;fontSize=31;fontStyle=0;aspect=fixed;" vertex="1" parent="1">
          <mxGeometry x="1280" y="1520" width="40" height="40" as="geometry" />
        </mxCell>
        <mxCell id="6lRXq5zpDCbXAbgdjt75-56" value="" style="edgeStyle=orthogonalEdgeStyle;rounded=0;orthogonalLoop=1;jettySize=auto;html=1;entryX=0.5;entryY=0;entryDx=0;entryDy=0;endArrow=none;endFill=0;fontStyle=1;fontSize=17;strokeWidth=2;" edge="1" parent="1" target="6lRXq5zpDCbXAbgdjt75-53">
          <mxGeometry relative="1" as="geometry">
            <mxPoint x="979.5" y="1960" as="sourcePoint" />
            <mxPoint x="979.5" y="2080" as="targetPoint" />
          </mxGeometry>
        </mxCell>
        <mxCell id="6lRXq5zpDCbXAbgdjt75-83" style="edgeStyle=orthogonalEdgeStyle;rounded=0;orthogonalLoop=1;jettySize=auto;html=1;exitX=0.5;exitY=1;exitDx=0;exitDy=0;entryX=0.5;entryY=0;entryDx=0;entryDy=0;strokeWidth=3;" edge="1" parent="1" source="6lRXq5zpDCbXAbgdjt75-53" target="6lRXq5zpDCbXAbgdjt75-81">
          <mxGeometry relative="1" as="geometry" />
        </mxCell>
        <mxCell id="6lRXq5zpDCbXAbgdjt75-53" value="&lt;font style=&quot;font-size: 31px;&quot;&gt;M&lt;br style=&quot;font-size: 31px;&quot;&gt;&lt;/font&gt;" style="rounded=0;whiteSpace=wrap;html=1;strokeWidth=3;fontSize=31;fontStyle=0;aspect=fixed;" vertex="1" parent="1">
          <mxGeometry x="960" y="2000" width="40" height="40" as="geometry" />
        </mxCell>
        <mxCell id="6lRXq5zpDCbXAbgdjt75-58" value="" style="edgeStyle=orthogonalEdgeStyle;rounded=0;orthogonalLoop=1;jettySize=auto;html=1;entryX=0.5;entryY=0;entryDx=0;entryDy=0;endArrow=none;endFill=0;fontStyle=1;fontSize=17;strokeWidth=2;" edge="1" parent="1" target="6lRXq5zpDCbXAbgdjt75-57">
          <mxGeometry relative="1" as="geometry">
            <mxPoint x="1299.5" y="1960" as="sourcePoint" />
            <mxPoint x="1299.5" y="2080" as="targetPoint" />
          </mxGeometry>
        </mxCell>
        <mxCell id="6lRXq5zpDCbXAbgdjt75-86" style="edgeStyle=orthogonalEdgeStyle;rounded=0;orthogonalLoop=1;jettySize=auto;html=1;exitX=0.5;exitY=1;exitDx=0;exitDy=0;entryX=0.5;entryY=0;entryDx=0;entryDy=0;strokeWidth=3;" edge="1" parent="1" source="6lRXq5zpDCbXAbgdjt75-57" target="6lRXq5zpDCbXAbgdjt75-82">
          <mxGeometry relative="1" as="geometry" />
        </mxCell>
        <mxCell id="6lRXq5zpDCbXAbgdjt75-57" value="&lt;font style=&quot;font-size: 31px;&quot;&gt;M&lt;br style=&quot;font-size: 31px;&quot;&gt;&lt;/font&gt;" style="rounded=0;whiteSpace=wrap;html=1;strokeWidth=3;fontSize=31;fontStyle=0;aspect=fixed;" vertex="1" parent="1">
          <mxGeometry x="1280" y="2000" width="40" height="40" as="geometry" />
        </mxCell>
        <mxCell id="6lRXq5zpDCbXAbgdjt75-59" style="edgeStyle=orthogonalEdgeStyle;rounded=0;orthogonalLoop=1;jettySize=auto;html=1;exitX=1;exitY=0.5;exitDx=0;exitDy=0;entryX=0;entryY=0.5;entryDx=0;entryDy=0;strokeWidth=3;" edge="1" parent="1" source="6lRXq5zpDCbXAbgdjt75-8" target="6lRXq5zpDCbXAbgdjt75-53">
          <mxGeometry relative="1" as="geometry" />
        </mxCell>
        <mxCell id="6lRXq5zpDCbXAbgdjt75-67" style="edgeStyle=orthogonalEdgeStyle;rounded=0;orthogonalLoop=1;jettySize=auto;html=1;exitX=1;exitY=0.5;exitDx=0;exitDy=0;entryX=0;entryY=0.5;entryDx=0;entryDy=0;strokeWidth=3;" edge="1" parent="1" source="6lRXq5zpDCbXAbgdjt75-10" target="6lRXq5zpDCbXAbgdjt75-57">
          <mxGeometry relative="1" as="geometry" />
        </mxCell>
        <mxCell id="6lRXq5zpDCbXAbgdjt75-69" style="edgeStyle=orthogonalEdgeStyle;rounded=0;orthogonalLoop=1;jettySize=auto;html=1;exitX=0;exitY=0.5;exitDx=0;exitDy=0;entryX=1;entryY=0.5;entryDx=0;entryDy=0;strokeWidth=3;" edge="1" parent="1" source="6lRXq5zpDCbXAbgdjt75-9" target="6lRXq5zpDCbXAbgdjt75-51">
          <mxGeometry relative="1" as="geometry" />
        </mxCell>
        <mxCell id="6lRXq5zpDCbXAbgdjt75-79" value="&lt;font style=&quot;font-size: 32px;&quot;&gt;DRO&lt;/font&gt;" style="rounded=0;whiteSpace=wrap;html=1;strokeWidth=3;fontSize=32;" vertex="1" parent="1">
          <mxGeometry x="920" y="1280" width="119.56" height="80" as="geometry" />
        </mxCell>
        <mxCell id="6lRXq5zpDCbXAbgdjt75-80" value="&lt;font style=&quot;font-size: 32px;&quot;&gt;DRO&lt;/font&gt;" style="rounded=0;whiteSpace=wrap;html=1;strokeWidth=3;fontSize=32;" vertex="1" parent="1">
          <mxGeometry x="1240" y="1280" width="119.56" height="80" as="geometry" />
        </mxCell>
        <mxCell id="6lRXq5zpDCbXAbgdjt75-81" value="&lt;font style=&quot;font-size: 32px;&quot;&gt;DRO&lt;/font&gt;" style="rounded=0;whiteSpace=wrap;html=1;strokeWidth=3;fontSize=32;" vertex="1" parent="1">
          <mxGeometry x="920" y="2200" width="119.56" height="80" as="geometry" />
        </mxCell>
        <mxCell id="6lRXq5zpDCbXAbgdjt75-82" value="&lt;font style=&quot;font-size: 32px;&quot;&gt;DRO&lt;/font&gt;" style="rounded=0;whiteSpace=wrap;html=1;strokeWidth=3;fontSize=32;" vertex="1" parent="1">
          <mxGeometry x="1240" y="2200" width="119.56" height="80" as="geometry" />
        </mxCell>
        <mxCell id="6lRXq5zpDCbXAbgdjt75-84" style="edgeStyle=orthogonalEdgeStyle;rounded=0;orthogonalLoop=1;jettySize=auto;html=1;exitX=0.5;exitY=0;exitDx=0;exitDy=0;entryX=0.5;entryY=1;entryDx=0;entryDy=0;strokeWidth=3;" edge="1" parent="1" source="6lRXq5zpDCbXAbgdjt75-64" target="6lRXq5zpDCbXAbgdjt75-79">
          <mxGeometry relative="1" as="geometry" />
        </mxCell>
      </root>
    </mxGraphModel>
  </diagram>
</mxfile>
